<?xml version="1.0" standalone="no"?>
<!DOCTYPE svg PUBLIC "-//W3C//DTD SVG 20010904//EN"
 "http://www.w3.org/TR/2001/REC-SVG-20010904/DTD/svg10.dtd">
<svg version="1.0" xmlns="http://www.w3.org/2000/svg"
 width="32.000000pt" height="32.000000pt" viewBox="0 0 32.000000 32.000000"
 preserveAspectRatio="xMidYMid meet">

<g transform="translate(0.000000,32.000000) scale(0.100000,-0.100000)"
fill="#000000" stroke="none">
<path d="M100 273 c-95 -49 -87 -193 13 -232 105 -40 206 61 166 166 -27 70
-111 101 -179 66z m70 -8 c0 -3 -10 -15 -22 -27 -12 -12 -18 -23 -12 -24 5 -1
22 -5 37 -8 15 -4 25 -11 22 -16 -4 -6 -16 -8 -29 -4 -29 7 -60 -26 -51 -55 3
-12 15 -21 26 -21 12 0 19 -7 19 -19 0 -28 15 -34 32 -13 22 24 31 59 18 67
-14 9 -2 25 14 19 8 -3 17 -1 21 5 10 18 25 12 25 -9 0 -53 -57 -110 -110
-110 -53 0 -110 57 -110 110 0 33 28 78 58 94 26 15 62 21 62 11z"/>
</g>
</svg>
